<svg width="29" height="29" viewBox="0 0 29 29" fill="none" xmlns="http://www.w3.org/2000/svg">
<g filter="url(#filter0_d_6_65)">
<path d="M24 20L19.514 15.506L24 20ZM22 9.5C22 11.7543 21.1045 13.9163 19.5104 15.5104C17.9163 17.1045 15.7543 18 13.5 18C11.2457 18 9.08365 17.1045 7.48959 15.5104C5.89553 13.9163 5 11.7543 5 9.5C5 7.24566 5.89553 5.08365 7.48959 3.48959C9.08365 1.89553 11.2457 1 13.5 1C15.7543 1 17.9163 1.89553 19.5104 3.48959C21.1045 5.08365 22 7.24566 22 9.5V9.5Z" stroke="#1D1D1D" stroke-width="2" stroke-linecap="round" shape-rendering="crispEdges"/>
</g>
<defs>
<filter id="filter0_d_6_65" x="0" y="0" width="28.7077" height="28.7065" filterUnits="userSpaceOnUse" color-interpolation-filters="sRGB">
<feFlood flood-opacity="0" result="BackgroundImageFix"/>
<feColorMatrix in="SourceAlpha" type="matrix" values="0 0 0 0 0 0 0 0 0 0 0 0 0 0 0 0 0 0 127 0" result="hardAlpha"/>
<feOffset dy="4"/>
<feGaussianBlur stdDeviation="2"/>
<feComposite in2="hardAlpha" operator="out"/>
<feColorMatrix type="matrix" values="0 0 0 0 0 0 0 0 0 0 0 0 0 0 0 0 0 0 0.25 0"/>
<feBlend mode="normal" in2="BackgroundImageFix" result="effect1_dropShadow_6_65"/>
<feBlend mode="normal" in="SourceGraphic" in2="effect1_dropShadow_6_65" result="shape"/>
</filter>
</defs>
</svg>
